<svg width="191" height="27" viewBox="0 0 191 27" fill="none" xmlns="http://www.w3.org/2000/svg">
<path d="M155.589 17.4537C155.86 17.8922 155.95 18.2431 156.041 18.6816C156.131 19.1202 156.131 19.471 156.041 19.8218C156.041 20.1727 155.95 20.5235 155.86 20.7866C155.77 21.0498 155.679 21.3129 155.679 21.4883C155.318 22.5408 154.505 23.3302 153.33 23.9442C152.156 24.4704 150.62 24.7336 148.722 24.7336C147.819 24.7336 146.915 24.6459 146.102 24.5582C145.289 24.3827 144.566 24.295 143.933 24.0319C143.301 23.7688 142.849 23.6811 142.488 23.5056C142.126 23.3302 141.946 23.2425 141.855 23.2425C141.765 23.1548 141.675 23.0671 141.765 22.9794L142.397 21.7514C142.397 21.7514 142.488 21.6637 142.578 21.6637C142.669 21.6637 142.669 21.6637 142.759 21.6637C143.391 21.9269 144.024 22.1023 144.566 22.2777C145.108 22.4531 145.741 22.6285 146.463 22.7162C147.186 22.804 147.999 22.8917 148.722 22.8917C149.084 22.8917 149.445 22.8917 149.987 22.804C150.529 22.804 151.071 22.7163 151.523 22.5408C151.975 22.3654 152.517 22.19 152.969 21.9269C153.421 21.6637 153.692 21.3129 153.872 20.8743C154.053 20.4358 154.143 19.9973 154.143 19.5587C154.234 19.1202 154.143 18.6816 153.872 18.2431C153.511 17.6291 153.059 17.1028 152.336 16.6643C151.614 16.2257 150.62 15.7872 149.174 15.4364C145.741 14.647 143.482 13.419 142.578 11.6648C142.397 11.314 142.217 10.8755 142.126 10.5246C142.036 10.1738 142.036 9.82294 142.036 9.4721C142.036 9.12126 142.126 8.77043 142.217 8.5073C142.307 8.15646 142.397 7.89333 142.488 7.71791C142.849 6.6654 143.662 5.87601 144.837 5.34975C146.012 4.82349 147.548 4.47266 149.445 4.47266C150.349 4.47266 151.162 4.56037 151.885 4.64808C152.607 4.82349 153.24 4.9112 153.692 5.08662C154.143 5.26204 154.595 5.43746 154.776 5.52517C155.047 5.70059 155.137 5.7883 155.228 5.7883C155.408 5.96372 155.408 6.05143 155.408 6.13914L154.776 7.36707C154.686 7.45478 154.595 7.54249 154.505 7.45478C154.053 7.19165 153.692 7.01623 153.24 6.92852C152.788 6.75311 152.336 6.6654 151.704 6.57769C151.071 6.48998 150.349 6.40227 149.535 6.40227C149.174 6.40227 148.813 6.40227 148.27 6.48998C147.728 6.48998 147.186 6.57769 146.734 6.75311C146.192 6.92852 145.741 7.10394 145.289 7.36707C144.837 7.6302 144.566 7.98104 144.385 8.5073C144.295 8.85814 144.205 9.29668 144.114 9.73523C144.024 10.1738 144.205 10.6123 144.385 11.0509C145.018 12.2788 146.825 13.2436 149.806 13.9453C150.71 14.1207 151.433 14.3838 152.065 14.647C152.698 14.9101 153.24 15.1732 153.692 15.4364C154.143 15.6995 154.595 16.0503 154.866 16.4012C155.137 16.6643 155.408 17.1028 155.589 17.4537Z" fill="#0E0E0E"/>
<path d="M174.021 17.1886C174.021 18.2411 173.841 19.2936 173.389 20.2584C172.937 21.2232 172.395 22.1003 171.672 22.802C170.949 23.5037 170.046 24.1177 169.052 24.4685C168.058 24.907 166.974 25.0825 165.89 25.0825C164.715 25.0825 163.721 24.907 162.727 24.4685C161.733 24.03 160.83 23.5037 160.107 22.802C159.384 22.1003 158.752 21.2232 158.39 20.2584C157.939 19.2936 157.758 18.2411 157.758 17.1886C157.758 16.0484 157.939 15.0836 158.39 14.0311C158.842 13.0663 159.384 12.1892 160.107 11.4875C160.83 10.7858 161.733 10.1718 162.727 9.821C163.721 9.47016 164.805 9.20703 165.89 9.20703C166.974 9.20703 168.058 9.38245 169.052 9.821C170.046 10.2595 170.949 10.7858 171.672 11.4875C172.395 12.1892 173.028 13.0663 173.389 14.0311C173.841 14.9959 174.021 16.0484 174.021 17.1886ZM165.799 11.0489C164.896 11.0489 164.083 11.2244 163.36 11.4875C162.637 11.8383 161.914 12.2769 161.372 12.8031C160.83 13.3294 160.378 14.0311 160.017 14.7327C159.655 15.4344 159.565 16.2238 159.565 17.1009C159.565 17.978 159.746 18.7674 160.017 19.4691C160.378 20.1707 160.83 20.8724 161.372 21.3987C161.914 21.9249 162.637 22.3635 163.36 22.7143C164.083 23.0651 164.986 23.1529 165.799 23.1529C166.703 23.1529 167.516 22.9774 168.239 22.7143C168.962 22.4512 169.684 21.9249 170.227 21.3987C170.769 20.8724 171.22 20.1707 171.582 19.4691C171.943 18.7674 172.034 17.8903 172.034 17.1009C172.034 16.2238 171.853 15.4344 171.582 14.7327C171.311 14.0311 170.769 13.3294 170.227 12.8031C169.684 12.2769 168.962 11.8383 168.239 11.4875C167.516 11.1366 166.703 11.0489 165.799 11.0489Z" fill="#0E0E0E"/>
<path d="M175.106 11.0491C175.015 11.0491 174.925 10.9614 174.925 10.8737V9.55804C174.925 9.47033 175.015 9.38262 175.106 9.38262H176.732V7.80385C176.732 7.45301 176.822 7.10217 176.913 6.75133C177.003 6.4005 177.184 6.04966 177.455 5.69882C177.726 5.34798 178.087 5.08485 178.449 4.90943C178.9 4.73401 179.442 4.55859 179.985 4.55859H182.424C182.514 4.55859 182.605 4.6463 182.605 4.73401V6.04966C182.605 6.13737 182.514 6.22508 182.424 6.22508H179.985C179.894 6.22508 179.714 6.22508 179.533 6.22508C179.352 6.22508 179.171 6.31279 178.991 6.4005C178.81 6.48821 178.629 6.66362 178.539 6.83904C178.358 7.01446 178.358 7.3653 178.358 7.71614V9.2072H181.159C181.25 9.2072 181.34 9.29491 181.34 9.38262V10.6983C181.34 10.786 181.25 10.8737 181.159 10.8737H178.358V24.4687C178.358 24.5564 178.268 24.6441 178.178 24.6441H176.822C176.732 24.6441 176.642 24.5564 176.642 24.4687V11.0491H175.106Z" fill="#0E0E0E"/>
<path d="M188.027 24.8213C187.394 24.8213 186.852 24.7336 186.401 24.4704C185.949 24.295 185.587 23.9442 185.316 23.6811C185.045 23.3302 184.865 22.9794 184.774 22.6285C184.684 22.2777 184.594 21.9269 184.594 21.576V11.0509H181.702C181.521 11.0509 181.521 10.9632 181.521 10.8755V9.55981C181.521 9.38439 181.612 9.38439 181.702 9.38439H184.594V4.64808C184.594 4.56037 184.684 4.47266 184.774 4.47266H186.22C186.401 4.47266 186.401 4.56037 186.401 4.64808V9.29668H190.557C190.738 9.29668 190.738 9.38439 190.738 9.4721V10.7877C190.738 10.9632 190.647 10.9632 190.557 10.9632H186.401V21.4006C186.401 21.4883 186.401 21.576 186.401 21.7514C186.401 21.9269 186.491 22.1023 186.581 22.2777C186.672 22.4531 186.852 22.6285 187.033 22.7162C187.214 22.804 187.485 22.8917 187.846 22.8917H190.466C190.647 22.8917 190.647 22.9794 190.647 23.0671V24.5581C190.647 24.7336 190.557 24.7336 190.466 24.7336H188.027V24.8213Z" fill="#0E0E0E"/>
<path d="M82.9441 20.1704H79.6914L78.9685 17.8023C78.9685 17.7146 78.8782 17.6268 78.8782 17.4514C78.8782 17.3637 78.7878 17.0129 78.6975 16.8375L77.9747 14.2062C77.3422 12.0134 76.6194 9.82069 75.9869 7.62795C75.3544 5.43521 74.5412 3.33018 71.8306 3.06705C69.12 2.80392 67.8551 4.73353 66.7708 6.66314L60.175 18.0654C57.6451 13.7676 55.2959 9.73298 52.9467 5.69834C51.9528 4.03186 50.5975 2.89163 48.6097 2.97934C46.7123 3.06705 45.086 4.38269 44.7245 6.13689C43.1885 11.1363 41.6525 16.2235 40.1165 21.2229H40.0262L38.8516 25.433H45.8991L46.7123 22.4509C46.8027 22.1 46.893 21.7492 46.9834 21.3984V21.3106L47.1641 20.6967C47.7966 18.2408 48.5194 15.8726 49.5133 12.452C51.5914 16.1358 53.2178 19.1179 54.8441 22.0123C56.0187 24.0296 56.9223 26.1347 59.9943 26.1347C63.0663 26.1347 63.8795 23.8542 65.0541 21.9246C66.8612 19.1179 67.8551 15.7849 70.4753 12.8905C71.4692 16.3989 72.5534 19.381 73.1859 22.4509C73.728 25.0822 74.9026 25.9593 77.7036 25.8715L82.9441 25.7838V20.1704Z" fill="#0E0E0E"/>
<path d="M92.9736 9.38436C100.473 9.38436 107.972 9.38436 115.472 9.38436V3.59552L89.992 3.50781C84.6611 4.47262 82.7637 7.27933 83.3058 11.314C83.7576 14.8224 86.6489 16.752 91.8894 16.8397C95.8649 16.9274 99.7501 16.8397 103.726 16.8397C104.9 16.8397 106.707 16.5765 106.798 18.243C106.888 20.1726 104.991 19.9972 103.726 19.9972C97.2202 19.9972 90.7148 19.9972 84.2997 19.9972H80.6855V25.8738C88.3656 25.7861 96.0457 25.8738 103.726 25.8738C105.713 25.9615 107.701 25.6106 109.508 24.9967C111.677 24.3827 113.303 22.6285 113.755 20.4358C114.568 16.138 112.942 13.5067 108.424 12.7173C103.364 11.7525 98.3045 12.5419 93.2447 12.2788C92.0701 12.1911 90.3534 12.6296 90.3534 10.7877C90.3534 9.38436 91.8894 9.38436 92.9736 9.38436Z" fill="#0E0E0E"/>
<path d="M126.586 3.59375H120.532V25.0826H126.586V3.59375Z" fill="#0E0E0E"/>
<path d="M140.951 3.59375H114.839V9.38258H137.247L140.951 3.59375Z" fill="#0E0E0E"/>
<path d="M0.0903536 0L16.4443 15.7877L32.6176 0V8.42012L16.354 24.2078L0 8.42012L0.0903536 0Z" fill="#0E0E0E"/>
<path d="M32.6178 16.8418V25.3496H23.8535L32.6178 16.8418Z" fill="#0E0E0E"/>
<path d="M8.67394 25.3479H0V16.9277L8.67394 25.3479Z" fill="#0E0E0E"/>
</svg>
